<?xml version="1.0" encoding="utf-8"?>
<!-- Generator: Adobe Illustrator 27.3.0, SVG Export Plug-In . SVG Version: 6.00 Build 0)  -->
<svg version="1.0" id="Layer_1" xmlns="http://www.w3.org/2000/svg" xmlns:xlink="http://www.w3.org/1999/xlink" x="0px" y="0px"
	 viewBox="0 0 100 94.2" style="enable-background:new 0 0 100 94.2;" xml:space="preserve">
<style type="text/css">
	.st0{fill:#FFFFFF;}
</style>
<g>
	<path class="st0" d="M83.4,51.3c-1.2,0-2.3,0-3.4,0c-10.7,0-21.4,0-32.1,0c-1,0-2,0-3-0.2c-1.1-0.2-1.9-0.9-2.4-2.1
		c-0.4-1.1-0.2-2.2,0.6-3.1c0.5-0.6,1.2-1,2-1c2.8,0,5.6-0.1,8.3-0.1c10,0,19.9,0,29.9,0c0.5,0,1.1,0,1.6,0.1c0.3,0,0.5-0.1,0.6-0.4
		c0.4-1.4,0.8-2.8,1.3-4.1c0.3-1.1,0.7-2.1,1.1-3.2c0.1-0.2,0.1-0.4,0.1-0.6c-0.7,0-1.4,0-2.1,0c-14.4,0-28.7,0-43.1,0
		c-0.5,0-1,0-1.4-0.1c-1.1-0.2-1.9-0.7-2.4-1.8c-0.4-0.8-0.5-1.6-0.2-2.4c0.5-1.1,1.4-2.1,2.9-2.1c1.5,0,2.9,0,4.4,0
		c1,0,2-0.1,3-0.1c2.9,0,5.8,0,8.7,0.1c1.6,0,3.2,0,4.8,0c2.6,0,5.2,0,7.8,0c3.5,0,7.1,0,10.6,0c1.7,0,3.4,0,5,0c1.4,0,2.7,0,4.1,0
		c0.8-2.4,1.6-4.8,2.4-7.2c-0.2,0-0.4,0-0.6,0c-5.7,0-11.3,0-17,0c-3.7,0-7.3,0-11,0c-4,0-8,0-12.1,0c-3.8,0-7.6,0-11.3,0
		c-2,0-4,0-6.1-0.1c-1.7-0.1-3-1.7-2.8-3.4c0.1-1.4,1.4-2.9,3.2-2.9c7.2,0,14.4,0,21.7,0c12.7,0,25.3,0,38,0c1.1,0,2.1,0,3.2,0.2
		c1.3,0.2,2.2,1.3,2.4,2.6c0.1,1.2-0.3,2.3-0.7,3.5c-0.5,1.5-1,3-1.5,4.5c-0.4,1.3-0.8,2.6-1.3,3.9c-0.5,1.6-1,3.2-1.5,4.7
		c-0.7,2.3-1.4,4.6-2.2,6.9c-0.6,1.8-1.2,3.5-1.7,5.3c-0.2,0.7-0.5,1.5-0.7,2.2c-0.1,0.4-0.3,0.8-0.4,1.2c-0.1,0.1-0.2,0.3-0.3,0.4
		c0,0.1-0.1,0.2-0.1,0.2c0,1.2-0.5,2.2-0.9,3.3c-0.3,0.9-0.5,1.8-0.8,2.7c0,0.1-0.2,0.2-0.2,0.3c0,0.1-0.1,0.1-0.1,0.2
		c-0.2,0.6-0.3,1.3-0.5,1.9c-0.2,0.7-0.5,1.5-0.7,2.2c-0.3,1.1-1.1,1.6-2,1.8c-0.6,0.2-1.3,0.3-1.9,0.3c-14.9,0-29.8,0-44.8,0
		c-0.8,0-1.7,0.1-2.6-0.4c-1,2.8-2,5.6-3,8.4c0.3,0,0.5,0.1,0.7,0.1c6.7,0,13.3,0,20,0c9.4,0,18.8,0,28.2,0c1,0,2,0,3,0.2
		c1.5,0.2,2.1,1.3,2.1,2.5c0.1,0.9-0.4,1.6-1.2,2.1c-0.7,0.5-1.4,0.5-2.2,0.6c-0.7,0.1-1.5,0-2.4,0c1.9,2.1,2.7,4.5,2.5,7.1
		c-0.2,2.4-1.2,4.5-2.9,6.2c-2.9,2.8-7.3,3.5-10.8,1.8c-2.9-1.4-4.6-3.7-5.3-6.8c-0.7-3,0.2-5.7,2.2-8.1c0,0-0.1-0.1-0.1-0.1
		c-0.7,0-1.3,0-2,0c-3.7,0-7.4,0-11.1,0c-0.4,0-0.8,0.1-1.2,0.2c-0.1,0-0.1,0.1-0.2,0.1c-2.1-0.5-4.3,0-6.4-0.2
		c0.4,0.7,0.8,1.4,1.2,2.1c0.6,1,0.9,2,1,3.1c0.2,1.1,0.2,2.3-0.1,3.4c-0.8,3.4-2.9,5.8-6.3,7c-1.2,0.5-2.6,0.7-3.9,0.5
		c-3.9-0.5-6.6-2.6-8.1-6.2c-0.4-1.1-0.7-2.2-0.7-3.3c0-2.3,0.7-4.4,2.3-6.1c0.1-0.1,0.1-0.1,0.3-0.3c-0.3-0.1-0.4-0.1-0.6-0.1
		c-0.7,0-1.5,0-2.2,0c-1.4,0-2.8-1.8-2.2-3.3c0.6-1.6,1.1-3.2,1.7-4.8c0.7-2,1.4-4,2.1-6c0.3-0.9,0.7-1.8,1-2.7
		c0.3-0.7,0.7-1.3,1.4-1.6c0.3-0.2,0.3-0.3,0.2-0.6c-0.7-2-1.5-4.1-2.2-6.2c-0.6-1.9-1.3-3.7-1.9-5.6c-0.7-2-1.4-4-2.1-6
		c-0.8-2.4-1.6-4.8-2.5-7.2c-0.6-1.8-1.2-3.5-1.9-5.3c-0.7-1.9-1.3-3.7-1.9-5.6c-0.5-1.4-1-2.8-1.5-4.3c-0.6-1.7-1.2-3.4-1.8-5.1
		c-0.2-0.7-0.5-1.4-0.7-2.1c-0.1-0.3-0.2-0.4-0.5-0.5c-1-0.4-2-0.8-3-1.2C10.5,9.4,8.7,8.7,6.9,8C5.2,7.3,3.5,6.6,1.8,5.9
		C0.6,5.4,0.1,4.4,0,3.1c-0.1-1.1,0.8-2.7,2.4-3C2.9,0,3.5,0,4.1,0.1C6,0.8,7.8,1.5,9.7,2.2c2.2,0.9,4.4,1.8,6.7,2.7
		c0.8,0.3,1.6,0.6,2.4,0.9c0.6,0.2,1.1,0.6,1.6,0.9C20.8,7,21,7.5,21.1,8.1c0.1,0.6,0.5,1.2,0.7,1.8c0.3,0.8,0.6,1.6,0.8,2.5
		c0.2,0.8,0.6,1.4,0.8,2.2c0.1,0.3,0.1,0.5,0.1,0.8c0,0,0,0.1,0,0.1c0.8,1.2,1,2.6,1.5,3.9c0.6,1.6,1.1,3.1,1.7,4.7
		c0.5,1.4,0.9,2.8,1.4,4.2c0.6,1.6,1.2,3.2,1.7,4.9c0.8,2.4,1.6,4.7,2.4,7.1c0.8,2.2,1.5,4.4,2.3,6.5c0.3,0.8,0.6,1.6,0.9,2.3
		c0.5,1.5,1,3,1.5,4.5c0.5,1.4,0.9,2.9,1.4,4.3c0.1,0.2,0.3,0.3,0.5,0.3c13.1,0,26.2,0,39.4,0c0.7,0,1.4,0,2.2,0.1
		c0.5,0,0.7-0.1,0.9-0.6c0.5-1.7,1.1-3.5,1.7-5.2C83.2,52.1,83.3,51.8,83.4,51.3z M69,84.5c-0.2,2.1,2,4.3,4.4,4.3
		c2.2-0.1,4.3-1.7,4.2-4.3c-0.1-2.3-1.9-4.2-4.2-4.2C70.8,80.2,69,82.4,69,84.5z M33.6,84.4c0,0,0.1,0,0.1,0c0,2.5,1.8,4.3,4.2,4.3
		c2.5,0,4.3-1.9,4.3-4.2c0-2.6-1.7-4.2-4.3-4.4c-1.6-0.1-2.6,0.9-3.7,1.8C34,82.8,33.8,83.6,33.6,84.4z"/>
</g>
</svg>
